<svg width="300.0865478515625px" height="121.39999999999999px" xmlns="http://www.w3.org/2000/svg" viewBox="99.95672607421875 14.300000000000004 300.0865478515625 121.39999999999999" style="background: rgba(0, 0, 0, 0);" preserveAspectRatio="xMidYMid"><defs><filter id="editing-extrusion" x="-100%" y="-100%" width="300%" height="300%"><feFlood result="color1" flood-color="#444"></feFlood><feConvolveMatrix order="8,8" divisor="1" kernelMatrix="1 0 0 0 0 0 0 0 0 1 0 0 0 0 0 0 0 0 1 0 0 0 0 0 0 0 0 1 0 0 0 0 0 0 0 0 1 0 0 0 0 0 0 0 0 1 0 0 0 0 0 0 0 0 1 0 0 0 0 0 0 0 0 1" in="SourceAlpha" result="extrude"></feConvolveMatrix><feComposite in="color1" in2="extrude" result="comp-extrude" operator="in"></feComposite><feOffset dx="4" dy="4" in="comp-extrude" result="offset-extrude"></feOffset><feMerge><feMergeNode in="offset-extrude"></feMergeNode><feMergeNode in="SourceGraphic"></feMergeNode></feMerge></filter></defs><g filter="url(#editing-extrusion)"><g transform="translate(149.4230785369873, 104.47000122070312)"><path d="M29.18 1.28L29.18 1.28L29.18 1.28Q20.99 1.28 20.22-10.37L20.22-10.37L9.22-10.37L9.22-10.37Q7.94-7.42 7.04-4.86L7.04-4.86L5.38 0L-3.58 0L16.58-42.24L30.34-42.24L33.02-11.14L33.02-11.14Q33.66-4.42 36.22-2.43L36.22-2.43L36.22-2.43Q34.37 1.28 29.18 1.28ZM14.72-23.17L11.20-15.04L20.03-15.04L19.26-31.49L19.26-33.22L14.72-23.17ZM55.23-3.52L55.23-3.52L55.23-3.52Q53.25 1.28 46.91 1.28L46.91 1.28L46.91 1.28Q43.71 1.28 41.66-0.96L41.66-0.96L41.66-0.96Q40-2.82 40-4.93L40-4.93L40-4.93Q40-9.73 42.24-20.22L42.24-20.22L46.91-44.80L59.90-46.08L53.70-13.70L53.70-13.70Q52.61-8.96 52.61-7.30L52.61-7.30L52.61-7.30Q52.61-3.65 55.23-3.52ZM86.59-10.82L86.59-10.82L86.59-10.82Q88.19-9.73 88.19-7.33L88.19-7.33L88.19-7.33Q88.19-4.93 86.98-3.39L86.98-3.39L86.98-3.39Q85.76-1.86 83.78-0.83L83.78-0.83L83.78-0.83Q79.68 1.28 75.26 1.28L75.26 1.28L75.26 1.28Q70.85 1.28 68.26 0.32L68.26 0.32L68.26 0.32Q65.66-0.64 63.94-2.43L63.94-2.43L63.94-2.43Q60.54-5.82 60.54-12.03L60.54-12.03L60.54-12.03Q60.54-21.70 65.79-27.58L65.79-27.58L65.79-27.58Q71.42-33.92 81.22-33.92L81.22-33.92L81.22-33.92Q87.30-33.92 90.30-31.36L90.30-31.36L90.30-31.36Q92.54-29.44 92.54-26.30L92.54-26.30L92.54-26.30Q92.54-15.04 73.09-15.04L73.09-15.04L73.09-15.04Q72.83-13.38 72.83-11.97L72.83-11.97L72.83-11.97Q72.83-9.02 74.14-7.90L74.14-7.90L74.14-7.90Q75.46-6.78 77.89-6.78L77.89-6.78L77.89-6.78Q80.32-6.78 82.91-7.90L82.91-7.90L82.91-7.90Q85.50-9.02 86.59-10.82ZM73.54-17.79L73.54-17.79L73.54-17.79Q78.08-17.79 80.70-20.61L80.70-20.61L80.70-20.61Q83.33-23.30 83.33-27.58L83.33-27.58L83.33-27.58Q83.33-29.06 82.78-29.86L82.78-29.86L82.78-29.86Q82.24-30.66 81.15-30.66L81.15-30.66L81.15-30.66Q80.06-30.66 79.14-30.24L79.14-30.24L79.14-30.24Q78.21-29.82 77.25-28.42L77.25-28.42L77.25-28.42Q74.88-25.22 73.54-17.79ZM103.23 0.19L103.23 0.19L103.23 0.19Q101.18 1.28 98.37 1.28L98.37 1.28L98.37 1.28Q95.55 1.28 94.02-0.16L94.02-0.16L94.02-0.16Q92.48-1.60 92.48-4.38L92.48-4.38L92.48-4.38Q92.48-7.17 94.43-9.89L94.43-9.89L94.43-9.89Q96.38-12.61 99.30-14.14L99.30-14.14L99.30-14.14Q102.21-15.68 104.26-16.58L104.26-16.58L100.22-25.86L100.22-25.86Q99.14-28.22 97.09-28.22L97.09-28.22L96.58-28.16L96.38-28.16L96.38-28.16Q96.77-30.40 99.39-32.13L99.39-32.13L99.39-32.13Q102.02-33.92 105.02-33.92L105.02-33.92L105.02-33.92Q109.89-33.92 112.13-29.06L112.13-29.06L112.64-28.03L115.39-21.25L115.39-21.25Q117.12-22.02 117.86-23.46L117.86-23.46L117.86-23.46Q118.59-24.90 118.59-27.74L118.59-27.74L118.59-27.74Q118.59-30.59 117.06-32.38L117.06-32.38L117.06-32.38Q119.49-33.92 122.69-33.92L122.69-33.92L122.69-33.92Q128.45-33.92 128.45-28.35L128.45-28.35L128.45-28.35Q128.45-22.27 120.83-18.75L120.83-18.75L116.99-16.96L120.45-8.06L120.45-8.06Q121.47-5.38 123.33-4.22L123.33-4.22L123.33-4.22Q124.10-3.71 124.99-3.65L124.99-3.65L124.99-3.65Q123.07-0.51 118.91 0.90L118.91 0.90L118.91 0.90Q117.63 1.28 115.90 1.28L115.90 1.28L115.90 1.28Q114.18 1.28 112.19 0.10L112.19 0.10L112.19 0.10Q110.21-1.09 109.50-2.94L109.50-2.94L105.98-12.10L105.98-12.10Q102.40-10.50 102.40-4.67L102.40-4.67L102.40-4.67Q102.40-1.98 103.23 0.19ZM155.78-10.82L155.78-10.82L155.78-10.82Q157.38-9.73 157.38-7.33L157.38-7.33L157.38-7.33Q157.38-4.93 156.16-3.39L156.16-3.39L156.16-3.39Q154.94-1.86 152.96-0.83L152.96-0.83L152.96-0.83Q148.86 1.28 144.45 1.28L144.45 1.28L144.45 1.28Q140.03 1.28 137.44 0.32L137.44 0.32L137.44 0.32Q134.85-0.64 133.12-2.43L133.12-2.43L133.12-2.43Q129.73-5.82 129.73-12.03L129.73-12.03L129.73-12.03Q129.73-21.70 134.98-27.58L134.98-27.58L134.98-27.58Q140.61-33.92 150.40-33.92L150.40-33.92L150.40-33.92Q156.48-33.92 159.49-31.36L159.49-31.36L159.49-31.36Q161.73-29.44 161.73-26.30L161.73-26.30L161.73-26.30Q161.73-15.04 142.27-15.04L142.27-15.04L142.27-15.04Q142.02-13.38 142.02-11.97L142.02-11.97L142.02-11.97Q142.02-9.02 143.33-7.90L143.33-7.90L143.33-7.90Q144.64-6.78 147.07-6.78L147.07-6.78L147.07-6.78Q149.50-6.78 152.10-7.90L152.10-7.90L152.10-7.90Q154.69-9.02 155.78-10.82ZM142.72-17.79L142.72-17.79L142.72-17.79Q147.26-17.79 149.89-20.61L149.89-20.61L149.89-20.61Q152.51-23.30 152.51-27.58L152.51-27.58L152.51-27.58Q152.51-29.06 151.97-29.86L151.97-29.86L151.97-29.86Q151.42-30.66 150.34-30.66L150.34-30.66L150.34-30.66Q149.25-30.66 148.32-30.24L148.32-30.24L148.32-30.24Q147.39-29.82 146.43-28.42L146.43-28.42L146.43-28.42Q144.06-25.22 142.72-17.79ZM184.26-7.23L184.26-7.23L184.26-7.23Q180.93-3.78 174.85-3.78L174.85-3.78L174.85-3.78Q167.23-3.78 165.63-9.34L165.63-9.34L165.63-9.34Q165.12-11.01 165.12-12.86L165.12-12.86L165.12-12.86Q165.12-14.72 165.50-16.64L165.50-16.64L168.51-32.64L181.50-33.92L177.98-15.30L177.98-15.30Q177.86-14.46 177.66-13.57L177.66-13.57L177.66-13.57Q177.47-12.67 177.47-11.74L177.47-11.74L177.47-11.74Q177.47-10.82 177.79-10.21L177.79-10.21L177.79-10.21Q178.11-9.60 178.56-9.22L178.56-9.22L178.56-9.22Q179.33-8.70 180.70-8.70L180.70-8.70L180.70-8.70Q182.08-8.70 183.26-10.37L183.26-10.37L183.26-10.37Q184.45-12.03 185.02-14.91L185.02-14.91L188.54-32.64L201.15-33.92L196.35-8.77L196.35-8.77Q193.98 3.52 189.12 8.38L189.12 8.38L189.12 8.38Q186.62 10.88 183.39 11.87L183.39 11.87L183.39 11.87Q180.16 12.86 176.00 12.86L176.00 12.86L176.00 12.86Q169.28 12.86 165.44 10.75L165.44 10.75L165.44 10.75Q161.60 8.64 161.60 5.12L161.60 5.12L161.60 5.12Q161.60 2.50 163.58 0.99L163.58 0.99L163.58 0.99Q165.57-0.51 168.64-0.51L168.64-0.51L168.64-0.51Q171.33-0.51 173.38 0.64L173.38 0.64L173.38 0.64Q174.59 1.34 175.17 2.24L175.17 2.24L175.17 2.24Q173.70 3.52 173.70 5.63L173.70 5.63L173.70 5.63Q173.70 8.45 176.26 8.45L176.26 8.45L176.26 8.45Q180.48 8.45 182.91-1.28L182.91-1.28L182.91-1.28Q183.62-4.16 184.26-7.23Z" fill="#ccc"></path></g></g><style>text {
  font-size: 64px;
  font-family: Arial Black;
  dominant-baseline: central;
  text-anchor: middle;
}</style></svg>