<svg width="422.54375px" height="121.39999999999999px" xmlns="http://www.w3.org/2000/svg" viewBox="38.728125000000006 14.300000000000004 422.54375 121.39999999999999" style="background: rgba(0, 0, 0, 0);" preserveAspectRatio="xMidYMid"><defs><filter id="editing-extrusion" x="-100%" y="-100%" width="300%" height="300%"><feFlood result="color1" flood-color="#444"></feFlood><feConvolveMatrix order="8,8" divisor="1" kernelMatrix="1 0 0 0 0 0 0 0 0 1 0 0 0 0 0 0 0 0 1 0 0 0 0 0 0 0 0 1 0 0 0 0 0 0 0 0 1 0 0 0 0 0 0 0 0 1 0 0 0 0 0 0 0 0 1 0 0 0 0 0 0 0 0 1" in="SourceAlpha" result="extrude"></feConvolveMatrix><feComposite in="color1" in2="extrude" result="comp-extrude" operator="in"></feComposite><feOffset dx="4" dy="4" in="comp-extrude" result="offset-extrude"></feOffset><feMerge><feMergeNode in="offset-extrude"></feMergeNode><feMergeNode in="SourceGraphic"></feMergeNode></feMerge></filter></defs><g filter="url(#editing-extrusion)"><g transform="translate(103.02500087022781, 107.05999755859375)"><path d="M10.69-0.32L0.64-14.72L13.31-27.78L13.31-27.78Q15.36-29.82 17.92-29.82L17.92-29.82L17.92-29.82Q18.88-29.82 19.81-29.25L19.81-29.25L19.81-29.25Q20.74-28.67 21.12-27.58L21.12-27.58L18.75-25.28L9.34-15.55L15.30-7.55L15.30-7.55Q16.06-6.59 16.06-5.54L16.06-5.54L16.06-5.54Q16.06-4.48 15.74-3.62L15.74-3.62L15.74-3.62Q15.42-2.75 14.72-2.05L14.72-2.05L14.72-2.05Q13.31-0.45 10.69-0.32L10.69-0.32ZM64.32 1.28L64.32 1.28L64.32 1.28Q56.13 1.28 55.36-10.37L55.36-10.37L44.35-10.37L44.35-10.37Q43.07-7.42 42.18-4.86L42.18-4.86L40.51 0L31.55 0L51.71-42.24L65.47-42.24L68.16-11.14L68.16-11.14Q68.80-4.42 71.36-2.43L71.36-2.43L71.36-2.43Q69.50 1.28 64.32 1.28ZM49.86-23.17L46.34-15.04L55.17-15.04L54.40-31.49L54.40-33.22L49.86-23.17ZM90.37-3.52L90.37-3.52L90.37-3.52Q88.38 1.28 82.05 1.28L82.05 1.28L82.05 1.28Q78.85 1.28 76.80-0.96L76.80-0.96L76.80-0.96Q75.14-2.82 75.14-4.93L75.14-4.93L75.14-4.93Q75.14-9.73 77.38-20.22L77.38-20.22L82.05-44.80L95.04-46.08L88.83-13.70L88.83-13.70Q87.74-8.96 87.74-7.30L87.74-7.30L87.74-7.30Q87.74-3.65 90.37-3.52ZM121.73-10.82L121.73-10.82L121.73-10.82Q123.33-9.73 123.33-7.33L123.33-7.33L123.33-7.33Q123.33-4.93 122.11-3.39L122.11-3.39L122.11-3.39Q120.90-1.86 118.91-0.83L118.91-0.83L118.91-0.83Q114.82 1.28 110.40 1.28L110.40 1.28L110.40 1.28Q105.98 1.28 103.39 0.32L103.39 0.32L103.39 0.32Q100.80-0.64 99.07-2.43L99.07-2.43L99.07-2.43Q95.68-5.82 95.68-12.03L95.68-12.03L95.68-12.03Q95.68-21.70 100.93-27.58L100.93-27.58L100.93-27.58Q106.56-33.92 116.35-33.92L116.35-33.92L116.35-33.92Q122.43-33.92 125.44-31.36L125.44-31.36L125.44-31.36Q127.68-29.44 127.68-26.30L127.68-26.30L127.68-26.30Q127.68-15.04 108.22-15.04L108.22-15.04L108.22-15.04Q107.97-13.38 107.97-11.97L107.97-11.97L107.97-11.97Q107.97-9.02 109.28-7.90L109.28-7.90L109.28-7.90Q110.59-6.78 113.02-6.78L113.02-6.78L113.02-6.78Q115.46-6.78 118.05-7.90L118.05-7.90L118.05-7.90Q120.64-9.02 121.73-10.82ZM108.67-17.79L108.67-17.79L108.67-17.79Q113.22-17.79 115.84-20.61L115.84-20.61L115.84-20.61Q118.46-23.30 118.46-27.58L118.46-27.58L118.46-27.58Q118.46-29.06 117.92-29.86L117.92-29.86L117.92-29.86Q117.38-30.66 116.29-30.66L116.29-30.66L116.29-30.66Q115.20-30.66 114.27-30.24L114.27-30.24L114.27-30.24Q113.34-29.82 112.38-28.42L112.38-28.42L112.38-28.42Q110.02-25.22 108.67-17.79ZM138.37 0.19L138.37 0.19L138.37 0.19Q136.32 1.28 133.50 1.28L133.50 1.28L133.50 1.28Q130.69 1.28 129.15-0.16L129.15-0.16L129.15-0.16Q127.62-1.60 127.62-4.38L127.62-4.38L127.62-4.38Q127.62-7.17 129.57-9.89L129.57-9.89L129.57-9.89Q131.52-12.61 134.43-14.14L134.43-14.14L134.43-14.14Q137.34-15.68 139.39-16.58L139.39-16.58L135.36-25.86L135.36-25.86Q134.27-28.22 132.22-28.22L132.22-28.22L131.71-28.16L131.52-28.16L131.52-28.16Q131.90-30.40 134.53-32.13L134.53-32.13L134.53-32.13Q137.15-33.92 140.16-33.92L140.16-33.92L140.16-33.92Q145.02-33.92 147.26-29.06L147.26-29.06L147.78-28.03L150.53-21.25L150.53-21.25Q152.26-22.02 152.99-23.46L152.99-23.46L152.99-23.46Q153.73-24.90 153.73-27.74L153.73-27.74L153.73-27.74Q153.73-30.59 152.19-32.38L152.19-32.38L152.19-32.38Q154.62-33.92 157.82-33.92L157.82-33.92L157.82-33.92Q163.58-33.92 163.58-28.35L163.58-28.35L163.58-28.35Q163.58-22.27 155.97-18.75L155.97-18.75L152.13-16.96L155.58-8.06L155.58-8.06Q156.61-5.38 158.46-4.22L158.46-4.22L158.46-4.22Q159.23-3.71 160.13-3.65L160.13-3.65L160.13-3.65Q158.21-0.51 154.05 0.90L154.05 0.90L154.05 0.90Q152.77 1.28 151.04 1.28L151.04 1.28L151.04 1.28Q149.31 1.28 147.33 0.10L147.33 0.10L147.33 0.10Q145.34-1.09 144.64-2.94L144.64-2.94L141.12-12.10L141.12-12.10Q137.54-10.50 137.54-4.67L137.54-4.67L137.54-4.67Q137.54-1.98 138.37 0.19ZM190.91-10.82L190.91-10.82L190.91-10.82Q192.51-9.73 192.51-7.33L192.51-7.33L192.51-7.33Q192.51-4.93 191.30-3.39L191.30-3.39L191.30-3.39Q190.08-1.86 188.10-0.83L188.10-0.83L188.10-0.83Q184.00 1.28 179.58 1.28L179.58 1.28L179.58 1.28Q175.17 1.28 172.58 0.32L172.58 0.32L172.58 0.32Q169.98-0.64 168.26-2.43L168.26-2.43L168.26-2.43Q164.86-5.82 164.86-12.03L164.86-12.03L164.86-12.03Q164.86-21.70 170.11-27.58L170.11-27.58L170.11-27.58Q175.74-33.92 185.54-33.92L185.54-33.92L185.54-33.92Q191.62-33.92 194.62-31.36L194.62-31.36L194.62-31.36Q196.86-29.44 196.86-26.30L196.86-26.30L196.86-26.30Q196.86-15.04 177.41-15.04L177.41-15.04L177.41-15.04Q177.15-13.38 177.15-11.97L177.15-11.97L177.15-11.97Q177.15-9.02 178.46-7.90L178.46-7.90L178.46-7.90Q179.78-6.78 182.21-6.78L182.21-6.78L182.21-6.78Q184.64-6.78 187.23-7.90L187.23-7.90L187.23-7.90Q189.82-9.02 190.91-10.82ZM177.86-17.79L177.86-17.79L177.86-17.79Q182.40-17.79 185.02-20.61L185.02-20.61L185.02-20.61Q187.65-23.30 187.65-27.58L187.65-27.58L187.65-27.58Q187.65-29.06 187.10-29.86L187.10-29.86L187.10-29.86Q186.56-30.66 185.47-30.66L185.47-30.66L185.47-30.66Q184.38-30.66 183.46-30.24L183.46-30.24L183.46-30.24Q182.53-29.82 181.57-28.42L181.57-28.42L181.57-28.42Q179.20-25.22 177.86-17.79ZM219.39-7.23L219.39-7.23L219.39-7.23Q216.06-3.78 209.98-3.78L209.98-3.78L209.98-3.78Q202.37-3.78 200.77-9.34L200.77-9.34L200.77-9.34Q200.26-11.01 200.26-12.86L200.26-12.86L200.26-12.86Q200.26-14.72 200.64-16.64L200.64-16.64L203.65-32.64L216.64-33.92L213.12-15.30L213.12-15.30Q212.99-14.46 212.80-13.57L212.80-13.57L212.80-13.57Q212.61-12.67 212.61-11.74L212.61-11.74L212.61-11.74Q212.61-10.82 212.93-10.21L212.93-10.21L212.93-10.21Q213.25-9.60 213.70-9.22L213.70-9.22L213.70-9.22Q214.46-8.70 215.84-8.70L215.84-8.70L215.84-8.70Q217.22-8.70 218.40-10.37L218.40-10.37L218.40-10.37Q219.58-12.03 220.16-14.91L220.16-14.91L223.68-32.64L236.29-33.92L231.49-8.77L231.49-8.77Q229.12 3.52 224.26 8.38L224.26 8.38L224.26 8.38Q221.76 10.88 218.53 11.87L218.53 11.87L218.53 11.87Q215.30 12.86 211.14 12.86L211.14 12.86L211.14 12.86Q204.42 12.86 200.58 10.75L200.58 10.75L200.58 10.75Q196.74 8.64 196.74 5.12L196.74 5.12L196.74 5.12Q196.74 2.50 198.72 0.99L198.72 0.99L198.72 0.99Q200.70-0.51 203.78-0.51L203.78-0.51L203.78-0.51Q206.46-0.51 208.51 0.64L208.51 0.64L208.51 0.64Q209.73 1.34 210.30 2.24L210.30 2.24L210.30 2.24Q208.83 3.52 208.83 5.63L208.83 5.63L208.83 5.63Q208.83 8.45 211.39 8.45L211.39 8.45L211.39 8.45Q215.62 8.45 218.05-1.28L218.05-1.28L218.05-1.28Q218.75-4.16 219.39-7.23ZM247.10 9.54L247.10 9.54L247.10 9.54Q247.10 8.38 247.68 6.72L247.68 6.72L268.61-51.07L268.61-51.07Q269.76-51.26 272.03-51.26L272.03-51.26L272.03-51.26Q274.30-51.26 275.68-50.66L275.68-50.66L275.68-50.66Q277.06-50.05 277.06-48.19L277.06-48.19L277.06-48.19Q277.06-46.59 276.03-43.65L276.03-43.65L255.68 12.54L255.68 12.54Q255.17 12.80 252.16 12.80L252.16 12.80L252.16 12.80Q247.10 12.80 247.10 9.54ZM272.83-2.62L272.83-2.62L277.06-6.78L284.61-14.66L280.38-20.35L280.38-20.35Q279.42-21.57 278.66-22.59L278.66-22.59L278.66-22.59Q277.89-23.62 277.89-24.64L277.89-24.64L277.89-24.64Q277.89-25.66 278.21-26.56L278.21-26.56L278.21-26.56Q278.53-27.46 279.23-28.16L279.23-28.16L279.23-28.16Q280.70-29.76 283.26-29.89L283.26-29.89L293.31-15.49L280.64-2.43L280.64-2.43Q278.59-0.38 276.03-0.38L276.03-0.38L276.03-0.38Q275.07-0.38 274.14-0.96L274.14-0.96L274.14-0.96Q273.22-1.54 272.83-2.62Z" fill="#ccc"></path></g></g><style>text {
  font-size: 64px;
  font-family: Arial Black;
  dominant-baseline: central;
  text-anchor: middle;
}</style></svg>